<?xml version="1.0" encoding="UTF-8"?>
<svg xmlns="http://www.w3.org/2000/svg" xmlns:xlink="http://www.w3.org/1999/xlink" width="26pt" height="26pt" viewBox="0 0 96 96" version="1.1">
<g id="surface1">
<path style=" stroke:none;fill-rule:nonzero;fill:#546E7A;fill-opacity:1;" d="M 36.203125 41.289063 C 35.046875 41.289063 33.953125 40.996094 33.105469 40.574219 L 34.894531 36.996094 C 35.714844 37.378906 37.273438 37.773438 38.210938 35.890625 C 40.207031 31.898438 44.308594 25.648438 48.589844 21.371094 C 50.570313 19.386719 54.371094 16.4375 58.382813 14.328125 C 63.597656 11.585938 67.3125 11.265625 69.414063 13.371094 L 74.414063 18.371094 L 71.589844 21.199219 L 66.589844 16.199219 C 65.117188 14.726563 56.179688 19.4375 51.414063 24.199219 C 47.625 27.988281 43.707031 33.847656 41.789063 37.679688 C 40.4375 40.382813 38.226563 41.289063 36.203125 41.289063 Z "/>
<path style=" stroke:none;fill-rule:nonzero;fill:#546E7A;fill-opacity:1;" d="M 10 83.207031 L 12.652344 80.460938 C 13.433594 79.679688 14.574219 79.761719 15.355469 80.542969 C 16.136719 81.328125 16.261719 82.507813 15.480469 83.289063 L 12.714844 86 Z "/>
<path style=" stroke:none;fill-rule:nonzero;fill:#F06292;fill-opacity:1;" d="M 19.949219 65.453125 C 19.949219 65.453125 34.183594 47.921875 46.488281 35.617188 C 58.820313 23.277344 70.363281 14.621094 70.476563 14.535156 C 71.132813 14.046875 72.050781 14.105469 72.632813 14.691406 L 81.308594 23.359375 C 81.890625 23.945313 81.953125 24.863281 81.464844 25.519531 C 81.378906 25.632813 72.71875 37.175781 60.382813 49.511719 C 48.078125 61.8125 30.714844 75.90625 30.546875 76.046875 Z "/>
<path style=" stroke:none;fill-rule:nonzero;fill:#D81B60;fill-opacity:1;" d="M 70.476563 14.535156 C 74.867188 11.882813 78.492188 10.03125 81.253906 10.03125 C 82.636719 10.03125 83.785156 10.472656 84.652344 11.34375 C 87.753906 14.441406 84.730469 20.113281 81.464844 25.519531 Z "/>
<path style=" stroke:none;fill-rule:nonzero;fill:#D81B60;fill-opacity:1;" d="M 15.480469 83.289063 C 17.71875 82.886719 22.859375 81.449219 30.546875 76.046875 L 19.949219 65.453125 C 14.550781 73.140625 13.050781 78.222656 12.652344 80.460938 Z "/>
</g>
</svg>
