<?xml version="1.0" encoding="UTF-8"?>
<svg xmlns="http://www.w3.org/2000/svg" xmlns:xlink="http://www.w3.org/1999/xlink" width="60pt" height="60pt" viewBox="0 0 60 60" version="1.1">
<g id="surface1">
<path style=" stroke:none;fill-rule:nonzero;fill:#333;fill-opacity:1;" d="M 13.816406 8.882813 C 11.085938 8.882813 8.882813 11.085938 8.882813 13.816406 C 8.882813 16.546875 11.085938 18.75 13.816406 18.75 C 16.546875 18.75 18.75 16.546875 18.75 13.816406 C 18.75 11.085938 16.546875 8.882813 13.816406 8.882813 Z M 29.605469 8.882813 C 26.875 8.882813 24.671875 11.085938 24.671875 13.816406 C 24.671875 16.546875 26.875 18.75 29.605469 18.75 C 32.335938 18.75 34.539063 16.546875 34.539063 13.816406 C 34.539063 11.085938 32.335938 8.882813 29.605469 8.882813 Z M 45.394531 8.882813 C 42.664063 8.882813 40.460938 11.085938 40.460938 13.816406 C 40.460938 16.546875 42.664063 18.75 45.394531 18.75 C 48.125 18.75 50.328125 16.546875 50.328125 13.816406 C 50.328125 11.085938 48.125 8.882813 45.394531 8.882813 Z M 13.816406 24.671875 C 11.085938 24.671875 8.882813 26.875 8.882813 29.605469 C 8.882813 32.335938 11.085938 34.539063 13.816406 34.539063 C 16.546875 34.539063 18.75 32.335938 18.75 29.605469 C 18.75 26.875 16.546875 24.671875 13.816406 24.671875 Z M 29.605469 24.671875 C 26.875 24.671875 24.671875 26.875 24.671875 29.605469 C 24.671875 32.335938 26.875 34.539063 29.605469 34.539063 C 32.335938 34.539063 34.539063 32.335938 34.539063 29.605469 C 34.539063 26.875 32.335938 24.671875 29.605469 24.671875 Z M 45.394531 24.671875 C 42.664063 24.671875 40.460938 26.875 40.460938 29.605469 C 40.460938 32.335938 42.664063 34.539063 45.394531 34.539063 C 48.125 34.539063 50.328125 32.335938 50.328125 29.605469 C 50.328125 26.875 48.125 24.671875 45.394531 24.671875 Z M 13.816406 40.460938 C 11.085938 40.460938 8.882813 42.664063 8.882813 45.394531 C 8.882813 48.125 11.085938 50.328125 13.816406 50.328125 C 16.546875 50.328125 18.75 48.125 18.75 45.394531 C 18.75 42.664063 16.546875 40.460938 13.816406 40.460938 Z M 29.605469 40.460938 C 26.875 40.460938 24.671875 42.664063 24.671875 45.394531 C 24.671875 48.125 26.875 50.328125 29.605469 50.328125 C 32.335938 50.328125 34.539063 48.125 34.539063 45.394531 C 34.539063 42.664063 32.335938 40.460938 29.605469 40.460938 Z M 45.394531 40.460938 C 42.664063 40.460938 40.460938 42.664063 40.460938 45.394531 C 40.460938 48.125 42.664063 50.328125 45.394531 50.328125 C 48.125 50.328125 50.328125 48.125 50.328125 45.394531 C 50.328125 42.664063 48.125 40.460938 45.394531 40.460938 Z "/>
</g>
</svg>
